<?xml version="1.0" encoding="UTF-8"?>
<!DOCTYPE svg PUBLIC "-//W3C//DTD SVG 1.1//EN" "http://www.w3.org/Graphics/SVG/1.1/DTD/svg11.dtd">
<!-- Creator: CorelDRAW X7 -->
<svg xmlns="http://www.w3.org/2000/svg" xml:space="preserve" width="19.622mm" height="27.7838mm" version="1.1" style="shape-rendering:geometricPrecision; text-rendering:geometricPrecision; image-rendering:optimizeQuality; fill-rule:evenodd; clip-rule:evenodd"
viewBox="0 0 1962 2778"
 xmlns:xlink="http://www.w3.org/1999/xlink">
 <defs>
  <style type="text/css">
   <![CDATA[
    .str0 {stroke:#FEFEFE;stroke-width:1.13}
    .fil1 {fill:#FEFEFE}
    .fil0 {fill:#FEFEFE;fill-rule:nonzero}
   ]]>
  </style>
 </defs>
 <g id="Capa_x0020_1">
  <metadata id="CorelCorpID_0Corel-Layer"/>
  <g id="_454166528">
   <g>
    <path class="fil0" d="M1854 1386l-15 0 0 0 -2 -65 -3 -64 -5 -63 -8 -62 -10 -62 -11 -59 -14 -59 -16 -57 -17 -56 -19 -55 -21 -52 -23 -51 -24 -50 -26 -47 -27 -46 -28 -44 -31 -42 -31 -39 -33 -37 -34 -35 -35 -33 -36 -30 -37 -28 -38 -25 -39 -23 -41 -19 -40 -17 -42 -14 -42 -11 -44 -8 -43 -5 -45 -2 0 -15 46 1 45 5 44 8 43 12 43 14 42 17 41 20 40 23 39 26 38 28 37 31 35 33 35 36 33 38 32 40 31 42 29 44 27 47 26 48 25 50 22 52 22 53 19 55 17 56 16 58 14 59 12 61 10 61 7 63 6 64 3 64 1 66 0 0zm-880 1275l0 -16 0 0 45 -1 43 -5 44 -8 42 -11 42 -14 40 -17 41 -20 39 -22 38 -25 37 -28 36 -30 35 -33 34 -35 33 -37 31 -40 31 -41 28 -44 27 -46 26 -47 24 -50 23 -51 21 -53 19 -54 17 -56 16 -57 14 -59 11 -60 10 -61 8 -62 5 -63 3 -64 2 -65 15 0 -1 65 -3 65 -6 64 -7 62 -10 62 -12 60 -14 60 -16 57 -17 57 -19 55 -22 53 -22 52 -25 50 -26 48 -27 46 -29 44 -31 43 -32 40 -33 38 -35 35 -35 34 -37 30 -38 29 -39 25 -40 23 -41 20 -42 18 -43 14 -43 11 -44 8 -45 5 -46 2 0 0zm-879 -1275l15 0 0 0 1 65 4 64 5 63 8 62 10 61 11 60 14 59 16 57 17 56 19 54 21 53 23 51 24 50 25 47 28 46 28 44 30 41 32 40 33 37 33 35 35 33 37 30 37 28 38 25 39 22 40 20 41 17 42 14 42 11 43 8 44 5 44 1 0 16 -45 -2 -45 -5 -44 -8 -44 -11 -42 -14 -42 -18 -41 -20 -40 -23 -39 -25 -38 -29 -37 -30 -36 -34 -34 -35 -33 -38 -32 -40 -31 -43 -29 -44 -27 -46 -26 -48 -25 -50 -23 -52 -21 -53 -19 -55 -18 -57 -15 -57 -14 -60 -12 -60 -10 -62 -7 -62 -6 -64 -3 -65 -1 -65 0 0zm879 -1275l0 15 0 0 -44 2 -44 5 -43 8 -42 11 -42 14 -41 17 -40 19 -39 23 -38 25 -37 28 -37 30 -35 33 -33 35 -33 37 -32 39 -30 42 -28 44 -28 46 -25 47 -24 50 -23 51 -21 52 -19 55 -17 56 -16 57 -14 59 -11 59 -10 62 -8 62 -5 63 -4 64 -1 65 -15 0 1 -66 3 -64 6 -64 7 -63 10 -61 12 -61 14 -59 15 -58 18 -56 19 -55 21 -53 23 -52 25 -50 26 -48 27 -47 29 -44 31 -42 32 -40 33 -38 34 -36 36 -33 37 -31 38 -28 39 -26 40 -23 41 -20 42 -17 42 -14 44 -12 44 -8 45 -5 45 -1 0 0z"/>
   </g>
   <path class="fil1" d="M368 2194l68 -44 14 20 -39 42 54 -18 14 21 -68 44 -8 -13 53 -34 -62 21 -9 -13 45 -48 -53 34 -9 -12zm90 62c7,-5 13,-8 19,-10 4,-1 9,-1 13,-1 5,0 9,2 12,4 5,2 10,6 14,11 7,10 10,20 9,30 -2,10 -7,19 -18,27 -10,8 -20,12 -31,11 -10,-1 -19,-6 -26,-15 -7,-10 -10,-20 -9,-30 1,-10 7,-19 17,-27zm11 13c-7,6 -11,11 -12,18 -1,6 0,12 4,17 4,5 9,8 16,8 6,0 13,-2 20,-8 7,-6 11,-12 13,-18 1,-6 -1,-11 -5,-17 -4,-5 -10,-8 -16,-8 -6,-1 -13,2 -20,8zm25 93l58 -56 11 11 -16 62 39 -38 11 11 -58 56 -12 -12 16 -60 -39 37 -10 -11zm82 78l43 -51 -18 -16 9 -10 49 41 -9 11 -18 -16 -43 52 -13 -11zm51 40l44 -68 50 33 -7 11 -37 -23 -9 15 34 22 -8 11 -34 -22 -12 19 38 24 -7 12 -52 -34zm76 47l35 -73 31 15c8,4 14,7 16,10 3,3 5,7 5,11 1,5 0,9 -2,13 -3,6 -6,10 -11,12 -5,2 -11,2 -18,-1 2,4 4,7 5,10 1,4 2,9 3,16l2 19 -18 -9 -3 -21c-1,-7 -2,-12 -2,-14 -1,-2 -2,-4 -3,-5 -2,-2 -4,-3 -7,-5l-3 -1 -15 30 -15 -7zm35 -35l11 5c7,4 12,6 14,6 2,0 4,0 5,-1 2,-1 3,-3 5,-5 1,-2 1,-5 0,-7 0,-2 -2,-4 -4,-5 -1,-1 -4,-3 -10,-6l-12 -5 -9 18zm52 72l26 -76 16 5 -26 77 -16 -6zm26 -84l13 -13 16 5 -20 11 -9 -3zm90 112l-18 -3 -3 -19 -32 -6 -10 17 -17 -4 46 -73 17 3 17 85zm-24 -37l-6 -31 -16 27 22 4zm72 19l0 -16 31 1 0 16 -31 -1zm130 -19l16 1c-1,10 -3,17 -8,22 -5,5 -12,9 -20,11 -11,2 -20,0 -28,-6 -8,-6 -14,-15 -16,-28 -3,-13 -1,-24 4,-33 6,-8 14,-14 25,-16 10,-2 18,0 26,4 4,3 7,7 10,13l-15 7c-1,-4 -4,-7 -7,-8 -4,-2 -8,-3 -12,-2 -6,1 -10,4 -13,9 -3,5 -4,12 -2,22 2,10 5,17 10,20 4,4 9,5 15,4 4,-1 8,-3 10,-6 3,-4 4,-8 5,-14zm32 -18c-3,-8 -4,-15 -3,-21 0,-5 1,-9 3,-13 2,-4 5,-8 8,-10 4,-4 9,-7 16,-9 11,-4 21,-3 30,1 9,5 16,14 20,26 4,13 4,24 0,33 -5,9 -12,16 -24,19 -11,4 -21,4 -30,-1 -9,-5 -16,-13 -20,-25zm16 -6c3,8 7,14 12,18 6,3 12,3 18,1 6,-2 10,-6 13,-12 2,-5 2,-13 -1,-22 -3,-8 -7,-14 -12,-17 -6,-3 -11,-4 -18,-2 -6,2 -11,6 -13,12 -3,6 -2,13 1,22zm95 6l-39 -70 14 -8 33 58 35 -20 7 12 -50 28zm46 -71c-5,-6 -8,-13 -10,-19 -1,-4 -1,-8 0,-13 0,-4 2,-9 4,-12 3,-5 7,-9 12,-13 10,-7 20,-10 30,-8 10,2 19,8 27,18 7,11 11,21 9,31 -1,11 -6,19 -16,26 -10,7 -20,10 -30,9 -10,-2 -19,-8 -26,-19zm13 -10c5,7 11,12 18,13 6,1 11,0 17,-4 5,-4 8,-9 8,-15 1,-6 -1,-13 -7,-21 -6,-7 -11,-12 -17,-13 -6,-1 -12,0 -17,4 -6,4 -9,9 -9,15 -1,7 1,13 7,21zm94 -21l-55 -59 18 -17 48 31 -27 -51 18 -16 55 59 -11 10 -43 -46 31 57 -11 11 -55 -36 43 47 -11 10zm16 -129l21 -24c5,-5 8,-9 10,-11 3,-2 6,-3 8,-4 3,-1 6,-1 10,0 3,0 6,2 8,4 3,3 5,6 6,9 1,4 1,7 0,11 4,-3 9,-4 13,-4 5,1 8,2 12,5 3,3 5,6 6,9 2,4 3,8 2,11 0,4 -2,7 -4,11 -2,2 -6,7 -13,15l-18 21 -61 -53zm21 -4l14 13 7 -8c4,-5 7,-8 8,-10 1,-2 2,-4 2,-6 0,-3 -1,-5 -3,-6 -2,-2 -4,-3 -6,-3 -2,0 -4,1 -6,3 -2,1 -5,5 -10,10l-6 7zm24 21l17 15 10 -12c3,-4 6,-7 7,-9 1,-2 1,-4 1,-6 0,-2 -1,-4 -4,-6 -1,-2 -3,-3 -5,-3 -3,0 -5,0 -7,1 -2,2 -5,5 -10,11l-9 9zm77 -37l-66 -47 9 -13 66 47 -9 13zm67 -98l-10 15 -19 -5 -18 27 12 16 -10 14 -50 -71 9 -14 86 18zm-43 7l-32 -7 19 25 13 -18z"/>
   <path class="fil1" d="M205 1698l-9 -56 3 -1 0 3c1,4 2,7 3,9 1,1 3,2 4,2 2,1 6,1 12,0l54 -9c9,-2 16,-4 19,-6 3,-2 5,-4 6,-8 2,-4 2,-8 1,-13 -1,-6 -3,-11 -6,-15 -3,-4 -8,-6 -13,-7 -5,-2 -13,-1 -24,1l-45 7c-5,1 -8,2 -10,3 -2,1 -3,3 -4,5 -1,2 -1,6 0,10l-3 1 -6 -38 3 0 0 2c1,3 2,5 3,7 2,2 4,3 7,4 1,0 5,0 9,-1l41 -7c13,-2 23,-2 29,-2 6,1 11,4 17,10 6,6 10,14 12,26 1,9 1,16 0,22 -3,8 -6,13 -11,17 -5,4 -12,6 -21,8l-53 9c-7,1 -11,2 -12,3 -1,1 -2,2 -3,4 -1,2 -1,5 0,10l-3 0zm-25 -226l65 -58 -48 3c-6,0 -11,1 -13,3 -3,3 -4,7 -4,14l-3 0 -2 -37 3 0c1,5 2,8 3,9 1,2 3,3 5,4 2,1 6,1 11,1l92 -6 0 3 -88 80 71 -4c6,-1 10,-2 12,-5 3,-3 3,-7 3,-11l0 -2 3 0 2 39 -3 0c0,-6 -2,-10 -4,-12 -3,-3 -7,-4 -13,-3l-78 4 -3 3c-3,2 -4,4 -5,6 -1,2 -1,5 -1,8l-3 0 -2 -39zm109 -204l3 0 -3 57 -2 0 0 -3c0,-4 -1,-6 -2,-8 0,-2 -2,-3 -3,-4 -2,0 -5,-1 -11,-1l-72 -3c-6,-1 -10,0 -11,0 -2,1 -3,2 -4,4 -1,1 -2,4 -2,7l0 3 -3 0 3 -57 2 0 0 4c0,3 1,5 2,7 0,2 2,3 3,4 2,0 5,1 11,1l73 4c5,0 9,0 10,-1 2,0 3,-2 4,-3 1,-2 2,-5 2,-8l0 -3zm-84 -196l2 1c0,4 2,7 5,11 3,3 8,7 18,13l78 50 -1 3 -92 24c-12,3 -18,5 -20,6 -2,1 -4,4 -5,8l-3 0 8 -52 3 0 0 2c-1,5 -1,8 0,10 0,1 2,2 3,2 1,0 2,0 4,0 1,0 5,-1 11,-3l58 -15 -45 -28c-6,-4 -9,-6 -11,-7 -2,-1 -4,-2 -5,-2 -2,0 -3,0 -5,1 -1,1 -2,2 -3,3 -1,2 -2,5 -3,9l-3 0 6 -36zm32 -112l43 11 1 -2c2,-7 1,-12 -2,-16 -4,-5 -10,-8 -18,-11l1 -3 56 14 -1 4c-6,-1 -11,-1 -16,0 -4,1 -7,2 -10,5 -2,2 -3,6 -5,11l30 8c6,1 10,2 11,2 2,0 3,-1 4,-2 2,-1 3,-3 3,-7l2 -6c3,-10 3,-19 -1,-26 -3,-7 -8,-13 -17,-18l1 -3 32 14 -24 92 -3 -1 1 -3c1,-3 1,-6 0,-8 0,-2 -1,-3 -3,-4 -1,-1 -4,-3 -9,-4l-71 -19c-5,-1 -8,-1 -9,-1 -2,0 -4,0 -5,1 -2,2 -3,4 -4,8l-1 3 -3 0 24 -90 31 9 -1 3c-8,-1 -14,0 -18,2 -4,2 -8,5 -10,9 -2,3 -4,8 -6,17l-3 11zm105 -152l29 11c6,2 9,3 11,3 2,0 3,-1 5,-2 1,-1 3,-4 5,-9l3 1 -21 53 -3 -1c2,-5 3,-9 3,-11 0,-2 -1,-3 -2,-5 -1,-1 -5,-3 -10,-5l-68 -26c-5,-2 -9,-3 -10,-3 -2,0 -4,1 -5,2 -2,2 -4,5 -5,9l-3 -1 19 -47c4,-13 9,-22 13,-27 4,-5 9,-8 15,-10 6,-2 12,-2 18,1 8,3 13,8 16,15 2,5 2,11 1,18l45 -11c6,-2 9,-3 11,-4 2,-2 4,-4 5,-6l3 1 -12 32 -60 15 -3 7zm-50 -20l45 18 1 -5c3,-7 4,-12 5,-16 0,-4 -2,-8 -4,-11 -3,-3 -7,-6 -12,-8 -8,-3 -15,-4 -20,-1 -5,2 -9,7 -12,15l-3 8zm94 -209l32 18 -2 3c-9,-4 -17,-4 -25,-2 -8,3 -14,7 -17,14 -3,4 -4,9 -3,13 1,4 3,8 6,9 2,2 4,2 7,2 3,0 6,-1 10,-2 3,-2 9,-5 17,-11 12,-8 22,-12 29,-13 7,-1 14,0 20,4 8,4 13,11 15,21 2,9 0,19 -5,29 -2,3 -4,5 -6,8 -2,2 -5,5 -9,8 -3,1 -4,3 -5,4 -1,2 -1,3 -1,5 0,2 1,4 3,6l-2 2 -36 -21 2 -2c11,4 21,4 30,2 8,-3 15,-8 19,-15 3,-5 4,-10 3,-15 -1,-5 -4,-8 -7,-10 -3,-2 -5,-2 -8,-2 -3,-1 -6,0 -9,1 -4,2 -9,5 -15,9 -10,6 -17,10 -22,12 -5,2 -10,3 -15,3 -5,0 -10,-1 -14,-4 -8,-4 -13,-11 -15,-20 -2,-8 0,-17 5,-25 1,-3 3,-6 6,-9 2,-2 4,-4 8,-6 3,-2 5,-4 6,-5 1,-2 1,-3 0,-4 0,-1 -1,-3 -4,-5l2 -2zm173 -53l2 2 -37 44 -2 -1 3 -3c2,-3 3,-5 3,-7 1,-2 0,-3 -1,-5 0,-2 -3,-4 -7,-8l-56 -46c-4,-4 -7,-6 -9,-7 -1,0 -3,0 -5,1 -2,1 -4,2 -6,4l-2 3 -2 -2 37 -44 2 2 -3 3c-2,2 -3,5 -3,7 0,1 0,3 1,5 0,1 3,4 7,7l56 47c4,4 7,6 9,6 1,1 3,1 5,0 2,-1 4,-2 6,-5l2 -3zm42 -49l-2 -2 3 -2c2,-2 4,-4 5,-6 0,-2 0,-4 0,-6 0,-1 -2,-4 -6,-8l-47 -56c-4,-4 -6,-7 -8,-8 -1,0 -3,-1 -5,0 -2,0 -4,1 -6,3l-3 3 -2 -3 38 -31c10,-9 19,-14 28,-17 10,-3 20,-2 30,1 9,4 18,10 25,18 5,6 9,13 11,19 2,7 3,13 3,19 0,6 -2,11 -4,17 -2,5 -6,11 -11,17 -2,2 -6,6 -11,10l-38 32zm-35 -107l56 66c2,4 4,6 5,6 1,1 3,1 4,1 1,-1 3,-2 5,-4 7,-5 11,-12 10,-20 0,-11 -6,-23 -17,-36 -9,-11 -18,-18 -27,-22 -7,-3 -14,-3 -19,-2 -5,2 -10,5 -17,11zm225 -60l-36 15 0 11c0,4 0,7 1,10 1,3 3,4 6,5 2,0 5,-1 11,-3l1 3 -34 14 -1 -3c3,-2 6,-5 7,-8 1,-4 2,-10 2,-19l4 -97 2 0 70 69c7,6 12,10 15,12 3,0 5,0 9,-1l1 3 -50 20 -1 -3 2 0c4,-2 7,-4 8,-6 1,-1 1,-2 0,-4 0,-1 -1,-2 -2,-2 0,-1 -1,-2 -4,-5l-11 -11zm-5 -4l-29 -29 -2 41 31 -12zm123 0l0 -3 4 0c3,-1 6,-1 7,-2 2,-1 3,-3 4,-4 0,-2 0,-5 0,-11l-2 -73c0,-5 0,-9 -1,-10 -1,-2 -2,-3 -4,-4 -2,-1 -4,-1 -7,-1l-4 0 0 -3 49 -2c14,0 24,2 32,5 10,4 18,10 23,19 6,9 9,19 9,30 0,8 -1,15 -3,22 -3,6 -6,12 -9,16 -4,5 -9,8 -14,11 -5,3 -11,5 -19,7 -3,0 -8,1 -15,1l-50 2zm39 -106l3 86c0,5 0,7 1,8 0,1 1,2 2,3 1,1 4,1 6,1 9,0 16,-4 21,-10 6,-9 9,-22 9,-39 -1,-15 -3,-26 -8,-34 -4,-7 -9,-11 -14,-13 -4,-2 -11,-2 -20,-2zm179 129l1 -2 4 1c2,2 5,2 7,2 2,0 4,-1 5,-2 1,-1 3,-4 5,-9l32 -65c3,-6 4,-9 4,-10 0,-2 0,-4 -1,-5 -2,-2 -4,-4 -6,-5l-4 -2 2 -2 44 22c12,5 21,12 26,18 7,9 11,18 12,28 0,10 -2,21 -7,31 -3,7 -8,13 -13,17 -5,5 -10,9 -16,11 -5,2 -11,3 -16,3 -6,0 -13,-1 -20,-3 -3,-1 -8,-3 -15,-6l-44 -22zm84 -75l-38 77c-2,4 -3,7 -3,8 0,1 0,2 1,3 1,2 2,3 5,4 8,4 16,4 23,1 9,-5 18,-15 25,-31 7,-12 10,-24 9,-33 0,-8 -2,-14 -6,-18 -3,-4 -8,-7 -16,-11zm173 118l-31 33 2 2c5,5 10,6 15,5 6,-1 12,-4 18,-10l2 3 -39 42 -3 -2c4,-5 7,-10 8,-14 1,-5 1,-9 0,-11 -1,-3 -3,-7 -7,-10l-21 22c-5,5 -7,8 -7,9 -1,1 -1,3 -1,4 1,2 2,4 4,6l5 5c8,7 15,11 23,11 8,1 16,-1 25,-6l2 2 -28 22 -69 -65 2 -2 3 2c2,2 4,4 6,4 2,1 4,0 5,-1 2,0 4,-2 8,-6l50 -54c4,-3 6,-6 6,-7 1,-1 1,-3 1,-5 0,-2 -2,-5 -5,-7l-2 -3 2 -2 67 63 -22 24 -3 -2c5,-7 7,-13 7,-17 1,-5 -1,-9 -3,-14 -2,-3 -6,-7 -12,-13l-8 -8zm195 232l-32 21 -2 -3c7,-7 11,-15 12,-24 1,-8 0,-16 -5,-22 -3,-6 -8,-11 -15,-13 -6,-3 -13,-4 -20,-3 -9,2 -17,5 -26,11 -8,5 -15,11 -21,17 -5,7 -8,14 -9,20 -1,7 1,14 6,21 4,6 8,10 14,14 6,3 13,5 23,7l-8 5c-9,-2 -16,-5 -22,-9 -6,-4 -12,-10 -16,-17 -7,-10 -10,-21 -11,-31 -1,-10 1,-20 6,-29 4,-8 11,-16 19,-21 9,-6 19,-9 30,-9 11,-1 21,2 31,7 9,5 17,12 22,21 4,6 7,14 9,23 1,6 2,9 3,10 1,1 2,2 4,3 2,0 4,0 6,-1l2 2zm66 135c7,16 8,31 2,46 -5,14 -16,24 -31,31 -13,5 -26,6 -39,3 -17,-5 -29,-16 -37,-34 -8,-19 -8,-35 0,-51 7,-12 17,-21 30,-26 15,-7 30,-7 44,-1 15,6 25,17 31,32zm-5 3c-4,-9 -11,-14 -23,-15 -9,-1 -21,2 -36,8 -17,7 -29,16 -35,26 -4,6 -4,13 -1,21 3,5 6,9 10,11 5,4 11,5 19,4 8,0 18,-3 29,-8 14,-5 23,-11 29,-16 5,-6 9,-11 10,-16 1,-5 0,-10 -2,-15zm49 5l-37 -14 -2 -7 29 -2 10 23zm-41 180l-30 8c-6,2 -10,3 -11,4 -1,1 -2,3 -3,5 0,2 1,5 2,10l-3 1 -15 -54 3 -1c1,5 2,8 4,10 1,1 3,2 4,2 2,1 6,0 12,-2l69 -19c6,-2 9,-3 11,-4 1,-1 2,-3 2,-5 1,-2 0,-5 -1,-10l3 -1 13 50c4,12 6,22 5,29 0,6 -2,12 -5,17 -4,5 -9,8 -16,10 -8,2 -15,1 -22,-3 -4,-3 -8,-7 -11,-13l-29 36c-4,4 -6,7 -7,9 -1,3 -1,6 0,8l-3 1 -10 -33 39 -48 -1 -7zm52 -15l-47 13 1 5c2,7 5,12 7,16 2,3 5,5 10,6 4,1 8,1 14,-1 8,-2 13,-5 16,-10 3,-5 3,-12 1,-20l-2 -9zm-69 161l3 -1 1 4c0,3 1,5 2,7 2,1 3,2 5,3 1,0 5,0 10,-1l72 -12c6,-1 9,-2 11,-3 1,0 2,-2 3,-4 1,-2 1,-4 0,-7l0 -4 2 0 9 48c2,13 2,24 -1,33 -2,10 -8,19 -16,25 -8,7 -17,11 -28,13 -8,1 -15,1 -22,-1 -7,-1 -13,-3 -18,-7 -5,-3 -9,-7 -12,-12 -4,-4 -7,-10 -9,-17 -1,-3 -2,-9 -4,-16l-8 -48zm110 24l-85 14c-4,1 -7,2 -8,2 -1,1 -2,2 -2,3 -1,1 -1,3 0,6 1,9 5,16 12,19 10,5 23,6 40,4 14,-3 25,-7 33,-13 6,-4 10,-9 11,-15 1,-4 1,-11 -1,-20zm30 208c2,17 -3,32 -13,44 -10,11 -23,18 -40,19 -14,0 -26,-3 -37,-11 -15,-10 -23,-25 -24,-44 -1,-20 5,-36 17,-48 10,-9 23,-14 37,-15 17,-1 31,4 42,15 12,10 18,24 18,40zm-5 1c-1,-10 -6,-17 -17,-22 -9,-4 -21,-5 -37,-4 -18,1 -32,5 -41,12 -6,5 -8,12 -8,20 0,6 2,10 5,14 4,4 9,8 17,10 8,2 18,3 30,2 15,-1 26,-3 33,-6 7,-3 12,-7 14,-11 3,-4 4,-9 4,-15zm-51 205c-3,11 -6,18 -10,22 -5,6 -12,9 -19,8 -9,0 -15,-4 -21,-10 -6,-9 -9,-21 -8,-37l3 -56 3 0c-1,5 0,9 1,11 0,2 2,3 3,4 2,1 5,1 11,1l72 4c6,0 10,0 12,-1 1,0 2,-2 4,-4 1,-1 1,-5 1,-10l3 0 -2 53c-1,13 -2,22 -5,27 -2,5 -6,9 -10,12 -5,3 -10,4 -15,4 -5,0 -10,-3 -14,-7 -4,-4 -7,-11 -9,-21zm4 -29c-1,8 0,13 1,17 2,4 4,7 7,9 3,2 7,3 12,4 5,0 9,-1 12,-3 4,-2 6,-4 8,-8 2,-3 3,-9 3,-17l-43 -2zm-7 0l-35 -2 -4 0c-3,0 -5,0 -7,2 -1,1 -2,3 -2,6 -1,4 0,8 2,12 2,4 4,7 8,9 4,2 8,3 12,3 5,0 10,-1 14,-2 4,-2 7,-5 9,-10 2,-4 3,-10 3,-18zm-44 195l5 -39 -10 -6c-3,-2 -6,-3 -8,-4 -3,0 -6,1 -8,3 -1,1 -2,5 -3,10l-3 0 6 -36 2 0c0,4 2,8 4,11 2,2 7,6 15,11l81 53 0 1 -95 26c-10,2 -15,5 -18,7 -2,1 -3,4 -4,7l-3 0 8 -53 3 0 0 2c-1,5 -1,8 0,10 1,1 2,2 3,2 1,0 2,0 4,0 0,0 2,-1 6,-1l15 -4zm6 -2l40 -11 -35 -22 -5 33z"/>
   <g>
    <path class="fil0" d="M1962 1389l-35 0 0 0 -2 -70 -3 -69 -6 -68 -9 -67 -10 -65 -13 -65 -15 -63 -17 -62 -19 -60 -21 -58 -23 -57 -25 -55 -27 -53 -28 -51 -30 -49 -31 -47 -33 -45 -35 -43 -35 -40 -38 -37 -38 -35 -40 -33 -40 -29 -42 -27 -43 -24 -44 -21 -44 -18 -46 -15 -46 -12 -47 -9 -48 -5 -48 -1 0 -36 51 2 50 5 50 9 48 13 48 15 47 19 46 22 44 25 44 28 42 31 41 34 40 36 38 39 37 41 36 44 34 46 32 49 31 50 29 52 27 55 25 56 24 58 21 60 20 61 17 63 15 65 14 65 10 67 9 68 6 70 4 70 1 71 0 0zm-981 1389l0 -35 0 0 48 -2 48 -5 47 -9 46 -11 46 -15 44 -18 44 -21 43 -24 42 -27 40 -30 40 -32 38 -35 38 -38 35 -40 35 -43 33 -44 31 -47 30 -49 28 -52 27 -53 25 -55 23 -56 21 -59 19 -60 17 -62 15 -63 13 -64 10 -66 9 -67 6 -68 3 -69 2 -70 35 0 -1 71 -4 71 -6 69 -9 68 -10 67 -14 66 -15 64 -17 63 -20 61 -21 60 -24 58 -25 57 -27 54 -29 52 -31 51 -32 48 -34 46 -36 44 -37 41 -38 39 -40 37 -41 33 -42 31 -44 28 -44 25 -46 22 -47 19 -48 16 -48 12 -50 9 -50 6 -51 1 0 0zm-981 -1389l36 0 0 0 1 70 3 69 7 68 8 67 11 66 12 64 15 63 17 62 20 60 21 59 23 56 24 55 27 53 28 52 30 49 31 47 33 44 35 43 36 40 37 38 38 35 40 32 41 30 41 27 43 24 44 21 44 18 46 15 46 11 47 9 48 5 48 2 0 35 -51 -1 -50 -6 -49 -9 -49 -12 -48 -16 -47 -19 -45 -22 -45 -25 -44 -28 -42 -31 -41 -33 -40 -37 -38 -39 -37 -41 -36 -44 -34 -46 -32 -48 -31 -51 -29 -52 -27 -54 -25 -57 -24 -58 -21 -60 -20 -61 -17 -63 -15 -64 -13 -66 -11 -67 -9 -68 -6 -69 -4 -71 -1 -71 0 0zm981 -1389l0 36 0 0 -48 1 -48 5 -47 9 -46 12 -46 15 -44 18 -44 21 -43 24 -41 27 -41 29 -40 33 -38 35 -37 37 -36 40 -35 43 -33 45 -31 47 -30 49 -28 51 -27 53 -24 55 -23 57 -21 58 -20 60 -17 62 -15 63 -12 65 -11 65 -8 67 -7 68 -3 69 -1 70 -36 0 1 -71 4 -70 6 -70 9 -68 11 -67 13 -65 15 -65 17 -63 20 -61 21 -60 24 -58 25 -56 27 -55 29 -52 31 -50 32 -49 34 -46 36 -44 37 -41 38 -39 40 -36 41 -34 42 -31 44 -28 45 -25 45 -22 47 -19 48 -15 49 -13 49 -9 50 -5 51 -2 0 0z"/>
   </g>
   <path class="fil1" d="M999 776c0,8 1,15 2,23 2,1 5,2 8,4 26,-48 58,-93 114,-121 -4,16 -9,31 -16,45 -24,26 -52,49 -81,71 4,1 9,1 13,2 30,-21 58,-44 83,-69 13,-21 18,-45 25,-68 -7,0 -13,0 -20,-1 -65,33 -101,73 -128,114z"/>
   <path class="fil1" d="M999 871c0,7 1,15 2,23 2,1 5,2 8,3 26,-48 58,-93 114,-120 -4,15 -9,31 -16,45 -24,26 -52,49 -81,71 4,1 9,1 13,2 30,-21 58,-44 83,-69 13,-22 18,-45 25,-68 -7,0 -13,-1 -20,-1 -65,33 -101,73 -128,114z"/>
   <path class="fil1" d="M998 694c1,7 2,13 2,20 2,1 5,2 7,2 20,-44 45,-87 90,-117 -3,15 -7,28 -13,42 -19,25 -41,48 -64,70 4,0 7,0 11,0 24,-21 46,-44 65,-69 10,-20 14,-40 19,-61 -5,0 -10,0 -15,1 -52,35 -80,73 -102,112z"/>
   <path class="fil1" d="M995 650c3,5 5,9 7,14 2,0 4,0 6,0 3,-38 9,-75 34,-109 2,11 3,22 2,33 -7,23 -17,46 -28,68 3,-1 6,-2 9,-3 12,-22 21,-44 29,-67 2,-17 -1,-34 -4,-50 -3,2 -7,3 -11,5 -29,40 -39,75 -44,109z"/>
   <path class="fil1" d="M999 1029c0,8 1,16 2,23 2,1 5,3 8,4 26,-48 58,-93 114,-121 -4,16 -9,31 -16,45 -24,26 -52,50 -81,71 4,1 9,2 13,2 30,-21 58,-44 83,-69 13,-21 18,-44 25,-68 -7,0 -13,0 -20,0 -65,33 -101,72 -128,113z"/>
   <path class="fil1" d="M999 1114c0,8 1,15 2,23 2,1 5,2 8,4 26,-48 58,-93 114,-121 -4,16 -9,31 -16,45 -24,26 -52,49 -81,71 4,1 9,1 13,2 30,-21 58,-44 83,-69 13,-22 18,-45 25,-68 -7,0 -13,-1 -20,-1 -65,33 -101,73 -128,114z"/>
   <path class="fil1" d="M999 961c-1,7 -1,14 -2,22 -2,1 -5,2 -7,3 -26,-46 -57,-89 -111,-116 4,15 9,30 15,43 24,25 51,48 79,69 -4,0 -9,1 -13,2 -29,-21 -56,-43 -80,-67 -12,-21 -18,-43 -24,-65 6,-1 13,-1 19,-1 63,32 97,70 124,110z"/>
   <path class="fil1" d="M999 1205c0,8 1,15 2,23 2,1 5,2 8,4 26,-48 58,-93 114,-121 -4,16 -9,31 -16,45 -24,26 -52,49 -81,71 4,1 9,1 13,2 30,-21 58,-44 83,-69 13,-21 18,-45 25,-68 -7,0 -13,0 -20,-1 -65,33 -101,73 -128,114z"/>
   <path class="fil1" d="M999 1053c-1,7 -1,14 -2,21 -2,1 -5,3 -8,4 -27,-45 -58,-88 -114,-114 4,15 9,29 16,42 24,25 52,47 81,67 -4,1 -9,2 -13,2 -31,-20 -58,-41 -83,-65 -13,-20 -19,-42 -25,-64 6,0 13,0 19,-1 66,32 101,69 129,108z"/>
   <path class="fil1" d="M999 1132c-1,8 -1,15 -2,23 -2,1 -5,2 -8,4 -27,-48 -58,-93 -114,-121 4,16 9,31 16,45 24,26 52,49 81,71 -4,1 -9,1 -13,2 -31,-21 -58,-44 -83,-69 -13,-22 -19,-45 -25,-68 6,0 13,0 19,-1 66,33 101,73 129,114z"/>
   <path class="fil1" d="M999 1233c-1,8 -1,15 -2,23 -2,1 -5,3 -8,4 -27,-48 -58,-93 -114,-121 4,16 9,31 16,45 24,26 52,49 81,71 -4,1 -9,2 -13,2 -31,-21 -58,-44 -83,-69 -13,-21 -19,-45 -25,-68 6,0 13,0 19,-1 66,34 101,73 129,114z"/>
   <path class="fil1" d="M999 1326c-1,7 -1,15 -2,22 -2,2 -5,3 -8,4 -27,-48 -58,-93 -114,-121 4,16 9,31 16,46 24,26 52,49 81,71 -4,0 -9,1 -13,2 -31,-22 -58,-45 -83,-70 -13,-21 -19,-44 -25,-67 6,-1 13,-1 19,-1 66,33 101,72 129,114z"/>
   <path class="fil1" d="M999 1419c-1,7 -1,15 -2,23 -2,1 -5,2 -8,3 -27,-48 -58,-92 -114,-120 4,15 9,31 16,45 24,26 52,49 81,71 -4,1 -9,1 -13,2 -31,-21 -58,-44 -83,-69 -13,-22 -19,-45 -25,-68 6,0 13,-1 19,-1 66,33 101,73 129,114z"/>
   <path class="fil1" d="M999 1295c0,7 1,15 2,23 2,1 5,2 8,3 26,-48 58,-93 114,-121 -4,16 -9,32 -16,46 -24,26 -52,49 -81,71 4,0 9,1 13,2 30,-21 58,-44 83,-70 13,-21 18,-44 25,-67 -7,0 -13,-1 -20,-1 -65,33 -101,72 -128,114z"/>
   <path class="fil1" d="M999 1390c0,8 1,16 2,23 2,1 5,3 8,4 26,-48 58,-93 114,-121 -4,16 -9,31 -16,45 -24,26 -52,49 -81,71 4,1 9,2 13,2 30,-21 58,-44 83,-69 13,-21 18,-45 25,-68 -7,0 -13,0 -20,0 -65,33 -101,72 -128,113z"/>
   <path class="fil1" d="M999 1470c0,7 1,15 2,23 2,1 5,2 8,3 26,-48 58,-92 114,-120 -4,15 -9,31 -16,45 -24,26 -52,49 -81,71 4,1 9,1 13,2 30,-21 58,-44 83,-69 13,-22 18,-45 25,-68 -7,0 -13,-1 -20,-1 -65,33 -101,73 -128,114z"/>
   <g>
    <polygon class="fil1" points="1001,2160 991,2160 991,647 1001,647 "/>
    <path id="1" class="fil0" d="M991 2158l10 0 0 4 -10 0 -2 -2 2 -2zm0 4l-2 0 0 -2 2 2zm2 -1515l0 1513 -4 0 0 -1513 2 -2 2 2zm-4 0l0 -2 2 0 -2 2zm12 2l-10 0 0 -4 10 0 2 2 -2 2zm0 -4l2 0 0 2 -2 -2zm-1 1515l0 -1513 3 0 0 1513 -2 2 -1 -2zm3 0l0 2 -2 0 2 -2z"/>
   </g>
   <path class="fil1" d="M999 1556c0,8 1,15 2,23 2,1 5,2 8,4 26,-48 58,-93 114,-121 -4,16 -9,31 -16,45 -24,26 -52,49 -81,71 4,1 9,1 13,2 30,-21 58,-44 83,-69 13,-21 18,-45 25,-68 -7,0 -13,0 -20,-1 -65,33 -101,73 -128,114z"/>
   <path class="fil1 str0" d="M808 556c4,12 5,22 2,32 -24,26 -45,49 -70,75 -5,3 -9,6 -13,6 -5,-1 -7,7 -9,11 3,19 5,36 8,55 4,15 -23,18 -26,6 -2,-11 -4,-20 -6,-31 -9,6 -13,9 -23,14 -17,11 -28,-8 -14,-21 12,-11 20,-19 32,-30 2,-4 3,-8 5,-12 -6,-6 -8,-12 -10,-18 2,-33 7,-67 14,-100 10,-19 26,-25 44,-28 159,-263 541,-144 537,172 -12,303 -465,333 -370,699 18,112 166,223 197,289 77,131 8,289 -143,289 -146,-8 -161,-73 -157,-133 1,-22 27,-20 28,0 6,59 104,104 182,60 72,-57 60,-143 7,-213 -98,-86 -171,-172 -203,-256 -28,-101 -25,-202 22,-303 34,-64 89,-140 156,-183 103,-66 177,-141 190,-223 23,-142 -80,-233 -177,-237 -84,-5 -152,20 -203,80zm60 936l13 47c0,0 78,66 78,69 1,4 28,7 28,7l-13 -44 -81 -72 -25 -7zm-3 -94l13 47c0,0 78,65 78,68 1,4 28,7 28,7l-13 -44 -81 -72 -25 -6z"/>
   <path class="fil1" d="M999 789c-1,7 -1,14 -2,21 -2,2 -5,3 -7,4 -26,-46 -57,-89 -111,-116 4,15 9,30 15,43 24,25 51,48 79,69 -4,0 -9,1 -13,2 -29,-21 -56,-43 -80,-67 -12,-20 -18,-43 -24,-65 6,0 12,0 19,-1 63,32 97,70 124,110z"/>
   <path class="fil1" d="M999 1499c-1,8 -1,15 -2,23 -2,1 -5,2 -8,4 -27,-48 -58,-93 -114,-121 4,16 9,31 16,45 24,26 52,49 81,71 -4,1 -9,1 -13,2 -31,-21 -58,-44 -83,-69 -13,-21 -19,-45 -25,-68 6,0 13,0 19,-1 66,33 101,73 129,114z"/>
   <path class="fil1" d="M999 1653c0,7 1,15 2,22 2,2 5,3 8,4 26,-48 58,-93 114,-121 -4,16 -9,31 -16,45 -24,27 -52,50 -81,72 4,0 9,1 13,2 30,-22 58,-45 83,-70 13,-21 18,-44 25,-67 -7,-1 -13,-1 -20,-1 -65,33 -101,72 -128,114z"/>
   <path class="fil1" d="M999 1589c-1,8 -1,16 -2,23 -2,1 -5,3 -8,4 -27,-48 -58,-93 -114,-121 4,16 9,31 16,45 24,26 52,49 81,71 -4,1 -9,2 -13,2 -31,-21 -58,-44 -83,-69 -13,-21 -19,-45 -25,-68 6,0 13,0 19,0 66,33 101,72 129,113z"/>
   <path class="fil1" d="M1000 1678c-1,7 -2,15 -2,23 -3,1 -5,2 -8,4 -27,-49 -58,-93 -115,-121 4,15 9,31 16,45 25,26 53,49 82,71 -5,1 -9,1 -14,2 -30,-21 -58,-44 -82,-69 -13,-22 -19,-45 -25,-68 6,0 13,-1 19,-1 65,33 101,73 129,114z"/>
   <path class="fil1" d="M999 877c-1,7 -1,15 -2,22 -2,2 -5,3 -8,4 -26,-48 -56,-93 -111,-121 4,16 9,31 16,46 23,26 51,49 79,71 -4,0 -9,1 -13,2 -30,-21 -57,-44 -81,-70 -12,-21 -18,-44 -24,-67 6,-1 13,-1 19,-1 63,33 98,72 125,114z"/>
   <path class="fil1" d="M1005 716c-2,7 -4,13 -5,19 -3,1 -5,2 -7,3 -13,-43 -33,-83 -72,-112 0,14 2,27 4,40 15,24 33,46 52,67 -4,0 -8,1 -11,1 -20,-21 -38,-43 -53,-67 -6,-19 -6,-39 -7,-59 5,0 10,1 15,1 45,34 70,70 84,107z"/>
   <path class="fil1" d="M994 647c-3,4 -6,8 -9,12 -2,0 -4,0 -6,0 2,-38 1,-76 -21,-113 -3,11 -6,22 -7,32 4,25 11,48 20,72 -3,-1 -6,-3 -9,-4 -9,-23 -17,-47 -21,-71 0,-17 6,-33 11,-48 3,2 7,4 11,6 25,43 31,80 31,114z"/>
   <path class="fil1" d="M916 2203l33 0c0,-1 0,-2 0,-4 0,-23 19,-42 44,-42 24,0 44,19 44,42 0,2 0,3 0,4l33 0 -77 173 -77 -173z"/>
   <path class="fil1" d="M754 2377c54,-1 105,-126 53,-235 -31,-8 -58,6 -77,56 -10,-1 -21,-2 -31,-2 -15,-28 24,-65 84,-106 69,-23 146,-18 226,-6 50,7 119,14 166,-15 29,-21 43,-32 73,-52 7,-5 25,-5 52,-1 -5,19 -8,32 -30,44 -83,56 -128,123 -110,250 7,50 58,45 70,-2 2,-6 15,-6 12,4 -14,107 -89,113 -119,43 -35,-85 -9,-161 19,-236 -60,8 -124,13 -184,0 -44,-9 -84,-9 -122,1 71,63 31,347 -82,257z"/>
   <path class="fil1" d="M275 1931l-10 -8c4,-4 7,-7 10,-10 2,-1 2,-2 3,-3 -1,0 -4,0 -10,-2 -3,-1 -6,-1 -7,-2l4 -11c6,2 11,5 15,7 -1,-7 -1,-12 -1,-17l11 0c0,3 0,9 -2,18 1,-1 3,-2 6,-3 4,-2 7,-3 11,-5l3 12c-5,1 -10,2 -16,3l7 9c2,2 3,4 4,5l-10 6 -9 -14c-2,4 -5,9 -9,15z"/>
   <path class="fil1" d="M1631 1931l-10 -8c4,-4 7,-7 10,-10 2,-1 2,-2 3,-3 -1,0 -4,0 -10,-2 -3,-1 -6,-1 -7,-2l4 -11c6,2 11,5 15,7 -1,-7 -1,-12 -1,-17l11 0c0,3 0,9 -2,18 1,-1 3,-2 6,-3 4,-2 7,-3 11,-5l3 12c-5,1 -10,2 -16,3l7 9c2,2 3,4 4,5l-10 6 -9 -14c-2,4 -5,9 -9,15z"/>
  </g>
 </g>
</svg>
